<svg width="1110" height="463" viewBox="0 0 1110 463" fill="none" xmlns="http://www.w3.org/2000/svg">
<rect y="1" width="374" height="73" rx="5" fill="#800101"/>
<rect x="831" width="279" height="73" rx="5" fill="#800101"/>
<rect x="831" y="191" width="214" height="73" rx="5" fill="#800101"/>
<rect x="312" y="264" width="127" height="73" rx="5" fill="#800101"/>
<rect x="493" y="199.634" width="87.9971" height="40.0229" rx="5" transform="rotate(-14.2319 493 199.634)" fill="#800101"/>
<path d="M599 264C601.761 264 604 266.239 604 269V385C604 387.761 601.761 390 599 390H515C512.239 390 510 392.239 510 395V419C510 421.761 512.239 424 515 424H599C601.761 424 604 426.239 604 429V458C604 460.761 601.761 463 599 463H482C479.239 463 477 460.761 477 458V269C477 266.239 479.239 264 482 264H599ZM515 301C512.239 301 510 303.239 510 306V330C510 332.761 512.239 335 515 335H562C564.761 335 567 332.761 567 330V306C567 303.239 564.761 301 562 301H515Z" fill="#800101"/>
<path d="M610 463C607.239 463 605 460.761 605 458V342C605 339.239 607.239 337 610 337H694C696.761 337 699 334.761 699 332V308C699 305.239 696.761 303 694 303H610C607.239 303 605 300.761 605 298V269C605 266.239 607.239 264 610 264H727C729.761 264 732 266.239 732 269V458C732 460.761 729.761 463 727 463H610ZM694 426C696.761 426 699 423.761 699 421V397C699 394.239 696.761 392 694 392H647C644.239 392 642 394.239 642 397V421C642 423.761 644.239 426 647 426H694Z" fill="#800101"/>
<rect x="403" y="264" width="73" height="199" rx="5" fill="#800101"/>
<rect x="163" y="463" width="399" height="72.6574" rx="5" transform="rotate(-90 163 463)" fill="#800101"/>
<rect x="831" y="463" width="399" height="72.6574" rx="5" transform="rotate(-90 831 463)" fill="#800101"/>
<rect x="301" y="463" width="462" height="73" rx="5" transform="rotate(-90 301 463)" fill="#800101"/>
<circle cx="769" cy="444" r="19" fill="#FED500"/>
</svg>
